<?xml version="1.0" encoding="UTF-8" standalone="no"?>
<svg
   xmlns:dc="http://purl.org/dc/elements/1.1/"
   xmlns:cc="http://creativecommons.org/ns#"
   xmlns:rdf="http://www.w3.org/1999/02/22-rdf-syntax-ns#"
   xmlns:svg="http://www.w3.org/2000/svg"
   xmlns="http://www.w3.org/2000/svg"
   viewBox="0 0 3507.3066 1162.9467"
   height="1162.9467"
   width="3507.3066"
   xml:space="preserve"
   id="svg2"
   version="1.1"><metadata
     id="metadata8"><rdf:RDF><cc:Work
         rdf:about=""><dc:format>image/svg+xml</dc:format><dc:type
           rdf:resource="http://purl.org/dc/dcmitype/StillImage" /></cc:Work></rdf:RDF></metadata><defs
     id="defs6" /><g
     transform="matrix(1.3333333,0,0,-1.3333333,0,1162.9467)"
     id="g10"><g
       transform="scale(0.1)"
       id="g12"><g
         transform="scale(1.6138)"
         id="g14"><path
           id="path16"
           style="fill:#ffffff;fill-opacity:1;fill-rule:nonzero;stroke:none"
           d="m 15943.3,362.899 c 54.7,126.378 -6.2,331.324 -373.8,318.919 -2.5,-145.551 21.2,-332.147 145.3,-407.856 96.1,-59.84 188,-2.028 228.5,88.937 M 857.609,467.028 c 8.871,-129.837 215.621,-85.781 313.731,-10.9 125.1,95.103 143.22,202.533 143.22,202.533 0,0 -155.48,0 -237.12,-15.709 C 1023.46,633.553 963.611,610.471 935.424,589.569 885.2,553.184 855.655,514.238 857.609,467.028 M 3901.98,4803.38 c -8.05,154.04 -295.69,158.63 -402.14,136.75 -194.72,-39.54 -398.24,-160.36 -517.85,-287.79 -205.24,-214.72 -255.77,-399.13 -255.77,-399.13 171.12,0 566.72,11.27 775.27,101.56 235.24,105.79 409.74,241.03 400.49,448.61 M 16092.8,322.753 c -83.5,-180.283 -285.4,-342.519 -529.4,-320.7948 -174.2,16.3143 -342.3,87.3591 -447,241.1058 -80,118.635 -137.9,282.526 -155,411.315 h -79.3 c -196.2,6.768 -12791.3,4.282 -12791.3,4.282 0,0 -106.76,-280.048 -302.45,-445.369 C 1485.67,-43.3758 953.989,-32.3963 720.781,295.766 498.846,607.762 444.19,1024.11 771.45,1187.03 c 105.106,53.31 259.75,84.28 421.01,92.85 141.8,9.25 296.97,8.34 296.97,8.34 67.21,378.09 92.84,652.57 160.73,1107.2 58.87,401.16 119.85,802.92 189.76,1248.07 0,0 -1461.587,0.97 -1702.993,0.97 -70.8975,0 -112.0948,-2.85 -129.4621,16.32 -24.7353,23.91 18.0426,111.26 40.522,163.07 45.9367,108.26 78.4881,173.29 114.1251,256.06 30.823,69.7 55.183,118.71 73.829,148.49 20.898,30.89 139.533,24.81 139.533,24.81 H 1951.27 c 0,0 71.04,295.45 324.4,612.79 336.81,421.39 918.86,630.02 1341.82,500.56 100.6,-31.58 234.57,-113.83 307.27,-204.05 110.28,-132.76 185.47,-380.86 96,-699.17 -88.94,-315.24 -411.31,-574.76 -690.98,-678.36 -347.11,-128.93 -733.69,-140.52 -733.69,-140.52 0,0 -85.48,-298.98 -232.69,-1302.8 -62.32,-432.44 -148.78,-1055.31 -148.78,-1055.31 l 101.57,-1.28 12574.91,1.28 h 90.5 c 58.8,599.41 196.8,1262.06 325.3,2066.26 0,0 -381.2,27.29 -435.8,46.92 -26,10 -134.3,-284.12 -535.8,-1102.31 -124.1,-252.15 -334.8,-719.1 -402.9,-786.23 -19.7,-18.65 -98.8,-21.28 -210.7,-20.6 -131.6,1.95 -303.6,8.12 -398.1,21.95 -11,2.48 -5.8,26.99 -7,51.95 -5,86.53 32.1,290.35 49,516.19 -56.2,-90.59 -138.9,-214.71 -205.1,-285.91 -53.1,-57.67 -208.6,-279.75 -391.7,-301.93 -193.4,-23.45 -430.2,90.6 -598.7,268.47 -147,153.67 -197.1,405.83 -197.1,405.83 -225.1,-444.17 -295,-525.06 -363.1,-671.06 -47.5,-46.99 -286.2,-34.44 -559,-6.77 -4.1,9.4 -1,61.42 0,90.74 24.7,340.57 130.2,1266.57 123.8,1566.47 -1.5,65.56 0.6,115.1 -36,98.86 -88.8,-36.54 -319.5,-260.95 -436.5,-422.89 -115.7,-162.84 -153.4,-245.92 -179,-343.28 -25.4,-96.67 -40.9,-252.3 -68.5,-456.65 -37.5,-299.29 -50.4,-498.82 -64,-525.58 -15.3,-27.9 -154.2,-7.67 -313.6,-7.07 -150.24,2.93 -251.99,0.68 -268.72,36.76 14.44,234.64 58.19,665.88 58.19,665.88 0,0 125.97,805.71 43.68,639.04 -217.5,-443.87 -586.93,-1135.01 -656.4,-1314.92 -13.07,-37.13 -177.71,-37.13 -345.21,-32.62 -158.01,3.38 -319.61,8.79 -319.99,34.13 -2.97,138.63 224.01,1722.91 224.01,1722.91 -121.14,-254.55 -426.63,-929.9 -610.92,-1337.54 -74.29,-168.62 -120.52,-349.88 -140.47,-379.28 -45.67,-57.67 -515.56,-49.7 -587.93,-13.08 -9.61,5.11 4.83,91.49 7.37,130.89 12.27,223.89 42.57,512.43 87.06,913.59 48.21,435.22 121.52,797.14 38.36,725.27 -60.42,-51.57 -430.91,-480.93 -485.44,-630.69 -71.88,-192.24 -100.01,-701.89 -131.36,-1032.46 -2.61,-34.35 -1.24,-101.49 -10.66,-113.75 -32.1,-50.97 -606.08,-43.6 -602.55,14.14 16.35,276.59 48.08,740 85.14,1018.17 17.41,128.11 65.37,601.37 60.48,764.14 -1,28.87 -203.44,-192.84 -294.09,-305.31 -196.4,-240.2 -285.49,-334.63 -317.82,-529.72 -24.81,-154.27 -85.86,-843.68 -96.23,-945.86 -6.09,-59.16 -515.82,-34.05 -591.6,-23.52 -35.33,6.09 81.65,839.47 107.29,1183.42 4.88,69.01 41.19,304.02 31.49,300.87 -13.38,-4.59 -192.16,-385.15 -368.6,-737.6 -207.73,-414.02 -352.61,-735.34 -405,-749.55 -52.48,-11.2 -597.77,-17.67 -606.26,14.51 -3.76,16.01 -2.48,45.94 -0.6,61.95 18.87,273.58 50.82,503.33 50.82,503.33 0,0 -189.23,-294.48 -333.35,-432.29 -99.99,-95.18 -222.99,-200.88 -443.8,-143.74 -82.92,22.62 -224.41,69.54 -390.79,226.29 -201.18,191.03 -251.7,474.39 -230.2,699.49 29.02,311.99 151.42,553.02 287.65,727.52 87.43,114.12 329.74,332.07 598.58,405.07 229.45,59.47 447.55,65.11 692.27,18.2 6.99,-2.18 24.05,-2.78 32.1,-3.16 10.23,-3.91 5.86,8.64 11.2,24.81 10.68,39.84 12.26,107.73 38.27,104.05 58.19,-7.97 185.85,-61.28 294.71,-106.31 129.23,-50.07 219.9,-95.56 270.72,-140.21 3.16,-1.88 -3.61,-26.99 -5.49,-54.66 -19.01,-229.98 -210.35,-1238.9 -191.03,-1321.15 22.03,-99.61 427.18,791.21 543.55,1031.71 116.39,242.83 228.63,488.22 306.37,563.41 57.51,53.9 373.12,-93.01 525.81,-179.46 68.11,-39.85 -76.61,-599.65 -76.61,-599.65 181.94,222.68 332.17,453.12 453.56,631.3 126.97,183.66 123.99,184.87 257.03,133.89 155.72,-60.37 400.24,-159.38 473.11,-234.64 50.19,-52.4 -20.51,-511.6 -20.51,-511.6 0,0 199.03,231.4 330.71,423.64 105.21,157.06 160.67,182.84 248.11,315.61 51.18,75.41 543.93,-196.67 556.82,-234.64 25.84,-78.18 -126.23,-811.2 -126.23,-1223.64 0,-155.48 335.73,576.26 497.4,963.89 124.68,294.11 168.05,386.73 191.91,463.72 39.84,135.77 451.79,-114.65 540.83,-150.97 76.9,-29.99 10.91,-183.28 -30.18,-662.34 -27.94,-335.23 -127.52,-853.45 -80.61,-882.32 14.06,-10.53 160.67,236.82 295.01,495.89 155.85,302.38 341,695.5 429.36,962.31 35.98,109.55 50.18,176.46 74.88,237.43 34.1,80.97 140.1,-7.37 257.5,-46.54 118.2,-36.91 224.9,-75.18 265.3,-108.56 45.1,-36.91 -30.4,-591.45 -30.4,-591.45 0,0 161.4,174.27 260.4,289.6 215.4,251.1 401.5,515.21 447.5,501.68 114.1,-37.14 176.5,-67.44 251.5,-100.59 72.3,-30.07 145.6,-54.66 222.7,-99.24 46.6,-26.39 6.3,-307.04 -30.8,-795.26 -25.7,-343.21 -56.7,-632.73 -36.4,-657.31 31.9,-36.16 204.8,298.4 322.3,534.24 11.9,21.2 57.2,243.28 128.7,379.06 154.6,296.81 308.9,398.16 448.1,499.65 232.9,167.2 575.9,208.62 831.7,179.76 46.3,-4.66 170.4,-26.47 189.3,-26.47 6.7,0 8.6,34.06 16.7,62.03 12.4,50.22 10.1,49.92 20.4,60.37 24.3,27.06 375.9,-118.79 578.4,-234.12 10.7,-6.09 -214.6,-1364.07 -214.1,-1431.89 1,-35.78 54.4,60.53 77.6,101.95 74.2,131.26 146.4,273.8 248.1,481.15 150.7,305.84 403,820.45 403,820.45 0,0 -109.4,26.39 -257.9,111.27 -183.7,102.77 -269.6,221.11 -108.8,482.66 144.1,237.12 329.6,257.04 540.6,199.68 91.1,-25.11 155.2,-154.95 151,-266.51 0,-60.45 -28.7,-175.78 -28.7,-175.78 0,0 300.3,-23.53 419.5,37.89 36,18.95 163,-46.31 292.2,-119.08 134.5,-74.06 269.7,-151.57 275.1,-166.53 12.8,-32.63 -189.3,-595.28 -374,-2255.42 l 63,-3.84 c 296.8,-8.04 532.5,-19.62 602.8,-175.17 62,-136.528 -77.2,-535.51 -191.8,-785.187 M 14842,3796.26 c 73.6,187.64 29.5,318.76 -139,301.17 -81.2,-9.7 -189.2,-108.78 -192.8,-152.17 -12.5,-127.88 242.6,-149 331.8,-149 M 3968.51,3374.87 c -199.67,-91.35 -297.04,-190.36 -397.03,-320.5 -104.73,-136.15 -160.36,-267.12 -201.18,-418.53 -35.33,-123.97 -89.01,-411.31 26.01,-600.62 122.92,-202.54 190.96,-186.37 272.01,-130.21 128.55,89.39 369.89,392.21 402.06,570.77 67.82,373.5 143.9,885.26 156.45,949.76 3.01,15.19 -139.16,2.71 -258.32,-50.67 m 9213.39,-56.09 c -216.1,-141.64 -379.3,-377.86 -453.6,-598.66 -107.6,-325.31 -68.6,-596.79 47.9,-736.92 94.5,-112.85 142.7,-155.85 292.6,-14.52 125.5,119.92 289.8,323.28 344.7,551.83 27.4,111.95 60.4,358.77 94.5,559.35 19.3,124.2 59.4,350.27 48.3,354.7 -43.4,19.7 -243,-30.22 -374.4,-115.78" /></g><path
         id="path18"
         style="fill:#ffffff;fill-opacity:1;fill-rule:nonzero;stroke:none"
         d="m 15304.1,6758.76 c 0,-300.41 -241.6,-542.09 -540.6,-542.09 -297,0 -541.3,241.68 -541.3,542.09 0,297.25 244.3,539.9 541.3,539.9 299,0 540.6,-242.65 540.6,-539.9" /></g></g></svg>